<mxfile host="app.diagrams.net" modified="2023-04-26T07:06:18.984Z" agent="Mozilla/5.0 (Windows NT 10.0; Win64; x64) AppleWebKit/537.36 (KHTML, like Gecko) Chrome/112.0.0.0 Safari/537.36" version="21.2.2" etag="SLlFFVKpo1biMAWQS8jW" type="github">
  <diagram name="페이지-1" id="KWgi97BGYXF5QQKB9EEj">
    <mxGraphModel>
      <root>
        <mxCell id="0" />
        <mxCell id="1" parent="0" />
      </root>
    </mxGraphModel>
  </diagram>
</mxfile>
